<?xml version="1.0" encoding="utf-8"?>
<!-- Generator: Adobe Illustrator 23.0.1, SVG Export Plug-In . SVG Version: 6.00 Build 0)  -->
<svg version="1.1" id="Layer_1" xmlns="http://www.w3.org/2000/svg" xmlns:xlink="http://www.w3.org/1999/xlink" x="0px" y="0px"
	 viewBox="0 0 1400 980" style="enable-background:new 0 0 1400 980;" xml:space="preserve">
<style type="text/css">
	.st0{fill:#EE964B;stroke:#8FC73E;stroke-miterlimit:10;}
	.st1{fill:#F17871;}
	.st2{fill:#FFFFFF;}
	.st3{fill:#0A345A;}
	.st4{fill:#DADBDC;}
	.st5{fill:#F1584F;}
	.st6{fill:#004564;}
	.st7{fill:#019DC3;}
	.st8{fill:#00ACD5;}
	.st9{fill:#DBDBDB;}
	.st10{fill:#1A7C57;}
	.st11{fill:#1F865F;}
	.st12{fill:#1E835E;}
	.st13{fill:#FBF49D;}
	.st14{fill:#249067;}
	.st15{fill:#1C825D;}
	.st16{fill:#2A9E71;}
	.st17{fill:#208C64;}
	.st18{fill:#E6E7E8;}
	.st19{fill:#E7E194;}
	.st20{fill:#2E3B52;}
	.st21{fill:#10141F;}
	.st22{fill:#E0E0E0;}
	.st23{fill:#1F2838;}
	.st24{fill:#FFEF7F;}
	.st25{fill:#EBEBEB;}
	.st26{fill:#0085B1;}
	.st27{fill:#FFF845;}
	.st28{fill:#414350;}
	.st29{fill:#343640;}
	.st30{fill:#BDBDBD;}
	.st31{fill:#E6E6E6;}
	.st32{fill:#CCCCCC;}
	.st33{fill:#A5F0FF;}
	.st34{fill:#DEDFE0;}
	.st35{fill:#F8ED3C;}
	.st36{fill:#E3DB3B;}
	.st37{fill:#63435D;}
</style>
<g>
	<g>
		<rect y="0" class="st0" width="1400" height="980"/>
	</g>
	<g>
		<rect x="161.9" y="433.8" class="st1" width="122.5" height="160.1"/>
		<g>
			<path class="st2" d="M290,599.4H156.3V428.2H290V599.4z M167.5,588.3h111.4v-149H167.5V588.3z"/>
		</g>
		<g>
			<polygon class="st3" points="193.5,434.4 191,433.2 220.4,372.1 248.2,433.2 245.7,434.4 220.3,378.7 			"/>
		</g>
	</g>
	<g>
		<path class="st2" d="M1308,398.5h-138.3V395h138.6C1308.3,396.2,1308.2,397.3,1308,398.5z"/>
		<path class="st2" d="M1308.4,392.9h-138.6v-3.5H1308C1308.2,390.5,1308.3,391.7,1308.4,392.9z"/>
		<path class="st2" d="M1306.2,404.1h-136.5v-3.5h137.8C1307.1,401.8,1306.7,403,1306.2,404.1z"/>
		<path class="st2" d="M1307.5,387.3h-137.8v-3.5h136.5C1306.7,384.9,1307.1,386.1,1307.5,387.3z"/>
		<path class="st2" d="M1302.7,409.7h-132.9v-3.5h135.4C1304.4,407.4,1303.6,408.6,1302.7,409.7z"/>
		<path class="st2" d="M1283.9,418.4h-114.2v-6.7h130.9C1296.3,415.9,1290.4,418.4,1283.9,418.4z"/>
		<path class="st2" d="M1169.7,369.4h114.2c6.5,0,12.4,2.5,16.8,6.7h-130.9V369.4z"/>
		<path class="st2" d="M1302.7,378.2c0.9,1.1,1.7,2.3,2.4,3.5h-135.4v-3.5H1302.7z"/>
		<path class="st4" d="M1169.7,376.1h130.9c0.7,0.7,1.4,1.4,2,2.1h-132.9L1169.7,376.1L1169.7,376.1z"/>
		<path class="st4" d="M1306.2,383.8h-136.5v-2.1h135.4C1305.5,382.3,1305.9,383,1306.2,383.8z"/>
		<path class="st4" d="M1308,389.4h-138.3v-2.1h137.8C1307.7,388,1307.9,388.7,1308,389.4z"/>
		<path class="st4" d="M1308.4,393.9c0,0.4,0,0.7-0.1,1.1h-138.6v-2.1h138.6C1308.4,393.2,1308.4,393.6,1308.4,393.9z"/>
		<path class="st4" d="M1307.5,400.6h-137.8v-2.1H1308C1307.9,399.2,1307.7,399.9,1307.5,400.6z"/>
		<path class="st4" d="M1305.1,406.2h-135.4v-2.1h136.5C1305.9,404.8,1305.5,405.5,1305.1,406.2z"/>
		<path class="st4" d="M1300.7,411.8h-130.9v-2.1h132.9C1302.1,410.4,1301.4,411.1,1300.7,411.8z"/>
		<g>
			<path class="st5" d="M1163.4,421.2h120.5c15.1,0,27.3-12.3,27.3-27.3c0-15.1-12.3-27.3-27.3-27.3h-120.5c-1.5,0-2.8,1.3-2.8,2.8
				s1.3,2.8,2.8,2.8h120.5c12,0,21.7,9.7,21.7,21.7c0,12-9.7,21.7-21.7,21.7h-120.5c-1.5,0-2.8,1.3-2.8,2.8
				S1161.9,421.2,1163.4,421.2z"/>
		</g>
	</g>
	<g>
		<path class="st2" d="M1308,343.8h-138.3v-3.5h138.6C1308.3,341.5,1308.2,342.7,1308,343.8z"/>
		<path class="st2" d="M1308.4,338.2h-138.6v-3.5H1308C1308.2,335.9,1308.3,337,1308.4,338.2z"/>
		<path class="st2" d="M1306.2,349.4h-136.5v-3.5h137.8C1307.1,347.1,1306.7,348.3,1306.2,349.4z"/>
		<path class="st2" d="M1307.5,332.6h-137.8v-3.5h136.5C1306.7,330.2,1307.1,331.4,1307.5,332.6z"/>
		<path class="st2" d="M1302.7,355h-132.9v-3.5h135.4C1304.4,352.8,1303.6,354,1302.7,355z"/>
		<path class="st2" d="M1283.9,363.8h-114.2v-6.7h130.9C1296.3,361.3,1290.4,363.8,1283.9,363.8z"/>
		<path class="st2" d="M1169.7,314.8h114.2c6.5,0,12.4,2.5,16.8,6.7h-130.9V314.8z"/>
		<path class="st2" d="M1302.7,323.5c0.9,1.1,1.7,2.3,2.4,3.5h-135.4v-3.5H1302.7z"/>
		<path class="st4" d="M1169.7,321.4h130.9c0.7,0.7,1.4,1.4,2,2.1h-132.9L1169.7,321.4L1169.7,321.4z"/>
		<path class="st4" d="M1306.2,329.1h-136.5V327h135.4C1305.5,327.7,1305.9,328.4,1306.2,329.1z"/>
		<path class="st4" d="M1308,334.7h-138.3v-2.1h137.8C1307.7,333.3,1307.9,334,1308,334.7z"/>
		<path class="st4" d="M1308.4,339.3c0,0.4,0,0.7-0.1,1.1h-138.6v-2.1h138.6C1308.4,338.6,1308.4,338.9,1308.4,339.3z"/>
		<path class="st4" d="M1307.5,345.9h-137.8v-2.1H1308C1307.9,344.5,1307.7,345.2,1307.5,345.9z"/>
		<path class="st4" d="M1305.1,351.5h-135.4v-2.1h136.5C1305.9,350.2,1305.5,350.9,1305.1,351.5z"/>
		<path class="st4" d="M1300.7,357.1h-130.9V355h132.9C1302.1,355.8,1301.4,356.5,1300.7,357.1z"/>
		<g>
			<path class="st6" d="M1163.4,366.6h120.5c15.1,0,27.3-12.3,27.3-27.3c0-15.1-12.3-27.3-27.3-27.3h-120.5c-1.5,0-2.8,1.3-2.8,2.8
				s1.3,2.8,2.8,2.8h120.5c12,0,21.7,9.7,21.7,21.7s-9.7,21.7-21.7,21.7h-120.5c-1.5,0-2.8,1.3-2.8,2.8S1161.9,366.6,1163.4,366.6z"
				/>
		</g>
	</g>
	<g>
		<path class="st7" d="M1084.3,237.7v169.6c0,0,0.3,6.3,6.3,6.3h53.4c-0.8,5.3-5.3,9.4-10.8,9.4h-44.8c-6.1,0-11-4.9-11-11V247.9
			C1077.4,243.2,1080.3,239.3,1084.3,237.7z"/>
		<path class="st8" d="M1084.3,407.3V237.7c1.3-0.5,2.6-0.8,4.1-0.8h44.8c6.1,0,11,4.9,11,11V412c0,0.5-0.1,1.1-0.1,1.6h-53.4
			C1084.6,413.5,1084.3,407.3,1084.3,407.3z"/>
		<rect x="1089.3" y="259.4" class="st2" width="43.8" height="14.9"/>
		<rect x="1089.3" y="283.6" class="st2" width="43.8" height="14.9"/>
		<rect x="1089.3" y="307.8" class="st2" width="43.8" height="14.9"/>
	</g>
	<rect x="91.7" y="846.4" class="st2" width="1216.6" height="25.7"/>
	<rect x="91.7" y="872" class="st9" width="1216.6" height="12"/>
	<g>
		<path class="st10" d="M131.8,500.1c0,0,13.7,15.7,17.8,36.5l-3.1,3.1l-3.1,3.1c-3.6-0.7-7-1.7-10.2-2.9
			c-14.7-15.5-26.1-33.7-32.6-54.1C106.4,483.8,117.2,484,131.8,500.1z"/>
		<path class="st11" d="M95.5,488.7c0,0,1.8-1.8,5.1-2.9c6.5,20.4,18,38.7,32.6,54.1c-15.5-5.6-26.3-14.9-26.3-14.9
			C81.7,502.2,95.5,488.7,95.5,488.7z"/>
		<polygon class="st12" points="106,500.1 102.6,498.3 106,496.4 107.8,493.1 109.7,496.4 113,498.3 109.7,500.1 107.8,503.5 		"/>
		<polygon class="st12" points="124.2,506.8 121.4,505.2 124.2,503.7 125.7,500.9 127.3,503.7 130.1,505.2 127.3,506.8 125.7,509.6 
					"/>
		<polygon class="st12" points="117.4,522.6 113.4,520.4 117.4,518.2 119.7,514.1 121.9,518.2 125.9,520.4 121.9,522.6 119.7,526.7 
					"/>
		<polygon class="st13" points="107.8,494.4 106.4,496.9 103.9,498.3 106.4,499.7 107.8,502.2 109.2,499.7 111.7,498.3 109.2,496.9 
					"/>
		<polygon class="st13" points="125.7,502.2 124.7,504.2 122.7,505.2 124.7,506.3 125.7,508.3 126.8,506.3 128.8,505.2 126.8,504.2 
					"/>
		<polygon class="st13" points="119.7,515.5 117.9,518.7 114.7,520.4 117.9,522.2 119.7,525.4 121.4,522.2 124.6,520.4 121.4,518.7 
					"/>
		<path class="st10" d="M251.3,549.5c0,0-13.7,15.7-17.8,36.5l3.1,3.1l3.1,3.1c3.6-0.7,7-1.7,10.2-2.9
			c14.7-15.5,26.1-33.7,32.6-54.1C276.6,533.2,265.9,533.4,251.3,549.5z"/>
		<path class="st11" d="M287.6,538.1c0,0-1.8-1.8-5.1-2.9c-6.5,20.4-18,38.7-32.6,54.1c15.5-5.6,26.3-14.9,26.3-14.9
			C301.4,551.6,287.6,538.1,287.6,538.1z"/>
		<polygon class="st12" points="277.1,549.5 280.5,547.7 277.1,545.8 275.3,542.5 273.4,545.8 270,547.7 273.4,549.5 275.3,552.9 		
			"/>
		<polygon class="st12" points="258.9,556.2 261.7,554.6 258.9,553.1 257.3,550.3 255.8,553.1 253,554.6 255.8,556.2 257.3,559 		
			"/>
		<polygon class="st12" points="265.6,572 269.7,569.8 265.6,567.6 263.4,563.5 261.2,567.6 257.1,569.8 261.2,572 263.4,576.1 		
			"/>
		<polygon class="st13" points="275.3,543.8 276.6,546.3 279.2,547.7 276.6,549.1 275.3,551.6 273.9,549.1 271.4,547.7 273.9,546.3 
					"/>
		<polygon class="st13" points="257.3,551.6 258.4,553.5 260.4,554.6 258.4,555.7 257.3,557.7 256.3,555.7 254.3,554.6 256.3,553.5 
					"/>
		<polygon class="st13" points="263.4,564.8 265.2,568 268.4,569.8 265.2,571.5 263.4,574.8 261.7,571.5 258.5,569.8 261.7,568 		
			"/>
		<path class="st14" d="M293.1,593c22.5-3.4,30.4,11.3,30.4,11.3l0,0c0,0,15.4,27.2-34,51.4c0,0-26.8,12.4-58.2,11.7
			C242.8,636.4,263.5,607.6,293.1,593z"/>
		<path class="st15" d="M261.9,605.7c12.6-7.8,22.9-11.5,31.2-12.8c-29.6,14.7-50.3,43.4-61.9,74.4c-2.2-0.1-4.3-0.2-6.5-0.3
			l-3.4-6.2l0,0l-3.4-6.2C233.6,624.1,261.9,605.7,261.9,605.7z"/>
		<path class="st10" d="M132.7,578.4c0,0,13.7,15.7,17.8,36.5l-3.1,3.1l-3.1,3.1c-3.6-0.7-7-1.7-10.2-2.9
			c-14.7-15.5-26.1-33.7-32.6-54.1C107.4,562.1,118.2,562.3,132.7,578.4z"/>
		<path class="st11" d="M96.4,567c0,0,1.8-1.8,5.1-2.9c6.5,20.4,18,38.7,32.6,54.1c-15.5-5.6-26.3-14.9-26.3-14.9
			C82.6,580.5,96.4,567,96.4,567z"/>
		<path class="st16" d="M160,491.9c15.3-15.5,32.3-15.4,32.3-15.4h0c0.1,0,61.4-0.7,55.9,107.2c0,0-4.7,66.1-42,122h-1.7
			c-26.6-35.9-42.7-78-52.9-122.6C144.5,552.3,147.7,520.4,160,491.9z"/>
		<path class="st17" d="M160,491.9c-12.4,28.5-15.6,60.4-8.2,91.3c10.3,44.6,26.3,86.7,52.9,122.6h-12.3h0h-14
			c-37.3-56-42-122-42-122C133.9,532.7,146.3,505.9,160,491.9z"/>
		<polygon class="st12" points="208.7,668.7 206.4,664.5 202.1,662.2 206.4,659.9 208.7,655.6 211,659.9 215.2,662.2 211,664.5 		
			"/>
		<path class="st12" d="M176.8,665.3l-3.1,5.7l-3.1-5.7l-5.7-3.1l5.7-3.1l3.1-5.7l3.1,5.7l0.5,0.3c0.7,1.5,1.4,3,2.2,4.5
			L176.8,665.3z"/>
		<path class="st12" d="M179.4,663.9c-0.7-1.5-1.5-3-2.2-4.5l5.2,2.9L179.4,663.9z"/>
		<polygon class="st12" points="200.3,621.3 194.6,618.1 200.3,615 203.4,609.3 206.6,615 212.3,618.1 206.6,621.3 203.4,626.9 		
			"/>
		<polygon class="st12" points="224.5,594.6 220.1,592.2 224.5,589.7 227,585.3 229.4,589.7 233.9,592.2 229.4,594.6 227,599.1 		
			"/>
		<polygon class="st12" points="165.3,591 160.7,588.5 165.3,586 167.8,581.4 170.4,586 175,588.5 170.4,591 167.8,595.6 		"/>
		<polygon class="st12" points="264.9,622.3 261.2,618.6 266.3,617.5 270,613.7 271.1,618.8 274.8,622.5 269.7,623.7 266,627.4 		
			"/>
		<polygon class="st12" points="106.9,578.5 103.6,576.6 106.9,574.8 108.8,571.4 110.6,574.8 114,576.6 110.6,578.5 108.8,581.8 		
			"/>
		<polygon class="st12" points="125.2,585.1 122.4,583.5 125.2,582 126.7,579.2 128.3,582 131.1,583.5 128.3,585.1 126.7,587.9 		
			"/>
		<polygon class="st12" points="252.4,653.5 249.6,650.8 253.5,649.9 256.2,647.1 257.1,651 259.8,653.7 256,654.6 253.3,657.3 		
			"/>
		<polygon class="st12" points="283.4,650 280.6,647.2 284.4,646.4 287.2,643.6 288,647.4 290.8,650.1 287,651 284.2,653.8 		"/>
		<polygon class="st12" points="118.4,600.9 114.4,598.7 118.4,596.5 120.6,592.4 122.8,596.5 126.9,598.7 122.9,600.9 120.6,605 		
			"/>
		<polygon class="st12" points="154.9,548.9 149.2,545.8 154.9,542.7 158,537 161.1,542.7 166.8,545.8 161.1,548.9 158,554.6 		"/>
		<polygon class="st12" points="189.9,493.2 185.3,490.7 189.9,488.2 192.4,483.6 194.9,488.2 199.4,490.7 194.9,493.2 192.4,497.7 
					"/>
		<polygon class="st12" points="301.7,613.7 298,610 303.1,608.9 306.7,605.2 307.9,610.3 311.6,613.9 306.5,615.1 302.8,618.8 		
			"/>
		<polygon class="st12" points="200.3,537.6 194.6,534.4 200.3,531.3 203.4,525.6 206.6,531.3 212.3,534.4 206.6,537.6 203.4,543.2 
					"/>
		<polygon class="st13" points="208.7,667.4 206.8,664 203.4,662.2 206.8,660.3 208.7,657 210.5,660.3 213.9,662.2 210.5,664 		"/>
		<path class="st13" d="M176.3,664.8l-2.6,4.8l-2.6-4.8l-4.8-2.7l4.8-2.6l2.6-4.8l2.6,4.8l1.4,0.8c0.5,1,0.9,2,1.4,3L176.3,664.8z"
			/>
		<path class="st13" d="M179.1,663.3c-0.5-1-1-2-1.4-3l3.4,1.9L179.1,663.3z"/>
		<polygon class="st13" points="203.4,610.6 200.8,615.5 196,618.1 200.8,620.8 203.4,625.6 206.1,620.8 210.9,618.1 206.1,615.5 		
			"/>
		<polygon class="st13" points="227,586.6 225,590.2 221.4,592.2 225,594.1 227,597.7 229,594.1 232.6,592.2 229,590.2 		"/>
		<polygon class="st13" points="167.8,582.7 165.8,586.5 162.1,588.5 165.8,590.6 167.8,594.3 169.9,590.6 173.6,588.5 169.9,586.5 
					"/>
		<polygon class="st13" points="269.6,615 266.6,618 262.5,619 265.5,622 266.4,626.1 269.4,623.1 273.6,622.2 270.6,619.2 		"/>
		<polygon class="st13" points="108.8,572.7 107.4,575.2 104.9,576.6 107.4,578 108.8,580.5 110.2,578 112.7,576.6 110.2,575.2 		
			"/>
		<polygon class="st13" points="126.7,580.5 125.6,582.5 123.7,583.5 125.6,584.6 126.7,586.6 127.8,584.6 129.7,583.5 127.8,582.5 
					"/>
		<polygon class="st13" points="255.8,648.4 253.8,650.5 250.9,651.1 253,653.2 253.6,656.1 255.7,654 258.6,653.4 256.5,651.3 		
			"/>
		<polygon class="st13" points="286.8,644.8 284.7,646.9 281.9,647.6 284,649.6 284.6,652.5 286.7,650.4 289.5,649.8 287.5,647.7 		
			"/>
		<polygon class="st13" points="120.6,593.8 118.9,597 115.7,598.7 118.9,600.5 120.6,603.7 122.4,600.5 125.6,598.7 122.4,597 		
			"/>
		<polygon class="st13" points="158,538.3 155.4,543.2 150.5,545.8 155.4,548.5 158,553.3 160.7,548.5 165.5,545.8 160.7,543.2 		
			"/>
		<polygon class="st13" points="192.4,484.9 190.4,488.6 186.6,490.7 190.4,492.7 192.4,496.4 194.4,492.7 198.1,490.7 194.4,488.6 
					"/>
		<polygon class="st13" points="306.4,606.5 303.4,609.5 299.3,610.4 302.3,613.4 303.2,617.5 306.2,614.5 310.3,613.6 307.3,610.6 
					"/>
		<polygon class="st13" points="203.4,526.9 200.8,531.8 196,534.4 200.8,537.1 203.4,541.9 206.1,537.1 210.9,534.4 206.1,531.8 		
			"/>
		<path class="st2" d="M144.7,696.9c1.6-0.4,3.2-0.7,5-0.7h84.5c10.7,0,18.5,8.7,17.5,19.3l-0.2,2.4H147L144.7,696.9z"/>
		<path class="st18" d="M144.7,696.9l2.2,21h-14.5l-0.2-2.4C131.4,706.7,136.7,699.1,144.7,696.9z"/>
		<path class="st2" d="M158,822.2l-7.3-68.9h97.1l-7.8,78.3c-0.1,1.3-0.4,2.6-0.8,3.9h-58.1C158.6,836.1,158,822.2,158,822.2z"/>
		<path class="st18" d="M158,822.2c0,0,0.6,13.9,23.1,13.3h58.2c-2.7,8.8-11.2,15.4-20.5,15.4h-53.7c-10.7,0-20.2-8.7-21.3-19.3
			l-7.8-78.3h14.7L158,822.2z"/>
		<polygon class="st19" points="150.7,753.3 136,753.3 132.5,717.9 147,717.9 		"/>
		<polygon class="st13" points="147,717.9 251.4,717.9 247.9,753.3 150.7,753.3 		"/>
	</g>
	<path class="st20" d="M220.1,126.6c-57,0-103.4,46.4-103.4,103.4c0,57,46.4,103.4,103.4,103.4c57,0,103.4-46.4,103.4-103.4
		C323.5,173,277.1,126.6,220.1,126.6z M220.1,324.3c-52,0-94.4-42.3-94.4-94.4c0-52,42.3-94.4,94.4-94.4c52,0,94.4,42.3,94.4,94.4
		S272.1,324.3,220.1,324.3z"/>
	<path class="st21" d="M220.1,135.6c-52,0-94.4,42.3-94.4,94.4s42.3,94.4,94.4,94.4c52,0,94.4-42.3,94.4-94.4
		S272.1,135.6,220.1,135.6z"/>
	<path class="st22" d="M248.7,144.5c30.6,14.3,51.8,45.5,51.8,81.7c0,49.7-39.9,90-89.1,90c-9.7,0-19.1-1.6-27.8-4.5
		c11.4,5.3,24,8.3,37.3,8.3c49.2,0,89.1-40.3,89.1-90C310.1,190.1,284.3,156.3,248.7,144.5z"/>
	<path class="st2" d="M300.6,226.2c0-36.2-21.2-67.5-51.8-81.7c-8.8-2.9-18.1-4.5-27.8-4.5c-49.2,0-89.1,40.3-89.1,90
		c0,36.3,21.2,67.5,51.8,81.7c8.8,2.9,18.1,4.5,27.8,4.5C260.6,316.2,300.6,275.9,300.6,226.2z"/>
	<g>
		<g>
			<rect x="215.5" y="289.3" class="st23" width="9.2" height="21.2"/>
		</g>
	</g>
	<g>
		<g>
			
				<rect x="255.3" y="279" transform="matrix(0.8109 -0.5852 0.5852 0.8109 -121.1723 206.1285)" class="st23" width="6.2" height="23"/>
		</g>
	</g>
	<g>
		<g>
			
				<rect x="281.6" y="250" transform="matrix(0.5497 -0.8354 0.8354 0.5497 -91.4233 356.2525)" class="st23" width="6.2" height="25.8"/>
		</g>
	</g>
	<g>
		<g>
			<rect x="282" y="227.1" class="st23" width="21.9" height="9.2"/>
		</g>
	</g>
	<g>
		<g>
			<polygon class="st23" points="275.6,201.9 272.3,196.7 289.2,185.9 292.5,191.1 			"/>
		</g>
	</g>
	<g>
		<g>
			
				<rect x="247.4" y="164.8" transform="matrix(0.5499 -0.8352 0.8352 0.5499 -24.6598 290.0624)" class="st23" width="18.9" height="6.2"/>
		</g>
	</g>
	<g>
		<g>
			<polygon class="st23" points="179.2,301.7 174.3,298.1 187.7,279.4 192.7,283 			"/>
		</g>
	</g>
	<g>
		<g>
			<polygon class="st23" points="148,272.6 144.6,267.4 166.2,253.2 169.6,258.4 			"/>
		</g>
	</g>
	<g>
		<g>
			<rect x="137.9" y="227.1" class="st23" width="21.9" height="9.2"/>
		</g>
	</g>
	<g>
		<g>
			<polygon class="st23" points="166.2,201.9 149.3,191.1 152.6,185.9 169.6,196.7 			"/>
		</g>
	</g>
	<g>
		<g>
			<polygon class="st23" points="187.6,177.5 177.3,161.7 182.4,158.3 192.8,174.1 			"/>
		</g>
	</g>
	<g>
		<g>
			<rect x="213.9" y="149.3" class="st23" width="9.2" height="18.7"/>
		</g>
	</g>
	<g>
		<g>
			<polygon class="st23" points="198.8,261.4 193.9,257.4 216.2,230.2 201.6,176.5 207.7,174.9 223.2,231.7 			"/>
		</g>
	</g>
	<g>
		<g>
			<circle class="st23" cx="219.7" cy="230.5" r="8.3"/>
		</g>
	</g>
	<rect x="866.5" y="420.1" class="st24" width="444.7" height="29.6"/>
	<rect x="900.6" y="449.7" class="st2" width="376.6" height="25.8"/>
	<rect x="917.4" y="475.5" class="st2" width="30" height="57.5"/>
	<rect x="1230.3" y="475.5" class="st2" width="30" height="57.5"/>
	<rect x="900.6" y="449.7" class="st4" width="376.6" height="5"/>
	<rect x="917.4" y="475.5" class="st4" width="30" height="5"/>
	<rect x="1230.3" y="475.5" class="st4" width="30" height="5"/>
	<g>
		<g>
			<path class="st2" d="M1086.6,796c0-16.8,13.6-30.4,30.4-30.4c16.7,0,30.4,13.6,30.4,30.4c0,16.8-13.6,30.4-30.4,30.4
				C1100.2,826.4,1086.6,812.7,1086.6,796z M1093.3,796c0,13,10.6,23.6,23.6,23.6c13,0,23.6-10.6,23.6-23.6
				c0-13-10.6-23.6-23.6-23.6C1103.9,772.4,1093.3,783,1093.3,796z"/>
		</g>
		<path class="st25" d="M1158.2,840.8h48.5c1.7-0.6,3.4-1.3,5-2c-18,0-36.4-6.1-51.1-15.6c-25.1-13.3-33.5-44.8-29.1-72h-19.4v23.5
			C1112.1,805,1131.3,830.9,1158.2,840.8z"/>
		<path class="st2" d="M1252.9,774.7v-23.5h-121.4c-4.4,27.2,3.9,58.7,29.1,72c14.6,9.5,33,15.6,51.1,15.6
			C1236,827.7,1252.9,803.1,1252.9,774.7z"/>
		<rect x="1195" y="761.1" class="st26" width="29.4" height="32.3"/>
		<rect x="1202.1" y="765.2" class="st27" width="16.1" height="22.4"/>
		<g>
			<rect x="1209.5" y="751.2" width="1.2" height="10"/>
		</g>
		<path class="st25" d="M1220.3,843.6c0,1.5-1.3,2.8-2.8,2.8h-70.8c-1.5,0-2.8-1.3-2.8-2.8l0,0c0-1.5,1.3-2.8,2.8-2.8h70.8
			C1219,840.8,1220.3,842,1220.3,843.6L1220.3,843.6z"/>
	</g>
	<g>
		<path class="st28" d="M1033.5,263.7H361.3c-11.9,0-21.6,9.7-21.6,21.6V718h715.5V285.4C1055.2,273.4,1045.5,263.7,1033.5,263.7z"
			/>
		<path class="st29" d="M355.9,718V285.4c0-3,2.4-5.4,5.4-5.4h672.2c3,0,5.4,2.4,5.4,5.4V718H355.9z"/>
		<rect x="369.4" y="295.1" class="st2" width="656" height="395.3"/>
		<polygon class="st30" points="589.6,861.3 700.1,861.3 810.7,861.3 820.3,854.4 580,854.4 		"/>
		<path class="st31" d="M616.8,837c0,0-1.4,12.3-17,14.4l-19.8,3h240.3l-19.8-3c-15.6-2.1-17-14.4-17-14.4l-2.5-23.6l-161.3-3.5
			L616.8,837z"/>
		<polygon class="st32" points="619.7,809.9 781,813.3 778.5,790.1 621.8,790.1 		"/>
		<path class="st2" d="M339.7,718v50.5c0,11.9,9.7,21.6,21.6,21.6h260.5h156.7h255c11.9,0,21.6-9.7,21.6-21.6V718H339.7z"/>
		<path class="st29" d="M736.2,754.8c0,4.3-3.5,7.8-7.8,7.8h-56.5c-4.3,0-7.8-3.5-7.8-7.8l0,0c0-4.3,3.5-7.8,7.8-7.8h56.5
			C732.7,747,736.2,750.4,736.2,754.8L736.2,754.8z"/>
		<rect x="395.1" y="320.6" class="st33" width="610" height="60.6"/>
		<rect x="806.7" y="405.3" class="st33" width="198.5" height="31.5"/>
		<rect x="806.7" y="436.8" class="st31" width="198.5" height="228.5"/>
		<rect x="572" y="489.9" class="st33" width="215.3" height="34.1"/>
		<rect x="572" y="524.1" class="st31" width="215.3" height="141.2"/>
		<rect x="395.1" y="405.3" class="st33" width="392.2" height="31.5"/>
		<polygon class="st31" points="787.3,436.8 787.3,480.4 563.9,480.4 563.9,665.3 395.1,665.3 395.1,436.8 		"/>
	</g>
	<polygon class="st34" points="904.3,790.2 908.5,741.2 923.8,790.2 	"/>
	<g>
		<path class="st35" d="M908.5,741.2c0,0,0.5,43.9,9.9,87.2l89.9-3.8c0,0-15.3-60.8-15.9-86.7L908.5,741.2z"/>
		<polygon class="st36" points="916.7,748.7 986.2,745.5 987.2,755.9 917.7,759.7 		"/>
		<polygon class="st36" points="918.5,771.1 987,767.9 988,772.1 918.9,775.3 		"/>
		<polygon class="st36" points="919.9,781.2 988.4,778 989.3,782.1 920.3,785.3 		"/>
	</g>
	<path class="st37" d="M1150.7,592.1c0,0-0.2,0.6-0.5,1.8c-0.3,1.1-0.8,2.8-1.4,4.8c-0.6,2.1-1.4,4.5-2.1,7.3
		c-0.8,2.8-1.5,5.9-2.1,9.2c-0.6,3.3-0.8,6.8-0.7,10.1c0.2,3.4,1,6.6,2.4,9.6c1.4,3,3.4,5.9,6.1,8.7c0.6,0.7,1.4,1.4,2.1,2.1
		c0.8,0.7,1.5,1.4,2.3,2l1.2,1l1.2,1l1.4,1.1l1.4,1.1c2,1.7,4,3.3,6,5.1c2,1.9,3.9,3.8,5.7,6c1.8,2.2,3.5,4.5,4.9,7.1
		c0.7,1.2,1.3,2.7,1.9,4c0.5,1.4,1.1,2.8,1.4,4.2c0.8,2.9,1.1,5.8,1.1,8.6c0,0.7-0.1,1.4-0.1,2.1l-0.1,1.3l-0.1,0.8
		c-0.1,0.5-0.2,1.1-0.3,1.6c-0.1,0.7-0.3,1.3-0.4,2l-0.2,1l-0.3,0.9c-0.2,0.6-0.4,1.2-0.5,1.7c-0.4,1.1-0.8,2.2-1.3,3.3
		c-1,2.1-1.9,4-3.1,5.7c-2.3,3.5-4.8,6.3-7.3,8.4c-2.5,2.1-5,3.6-7.1,4.5c-0.5,0.2-1,0.4-1.5,0.6c-0.5,0.2-1,0.3-1.4,0.4
		c-0.8,0.3-1.6,0.5-2.2,0.5c-1.2,0.2-1.8,0.3-1.8,0.3s0.5-0.4,1.3-1.3c0.4-0.4,0.9-0.9,1.5-1.5c0.6-0.6,1.2-1.3,1.8-2.1
		c1.2-1.6,2.6-3.6,3.8-6.1c1.2-2.4,2.3-5.2,3-8.3c0.4-1.5,0.7-3.2,0.9-4.8c0.1-0.8,0.2-1.7,0.2-2.5c0-0.4,0-0.8,0-1.3l0-0.6l0-0.6
		c0-0.4,0-0.7,0-1.1c0-0.5-0.1-1.1-0.1-1.6l0-0.8c0,0.1,0-0.3,0,0.2l0,0l0-0.1l0-0.1l-0.1-0.3c-0.1-0.4-0.1-0.8-0.2-1.2
		c-0.4-1.5-0.8-3-1.5-4.4c-0.3-0.7-0.7-1.4-1.1-2.1c-0.5-0.7-0.9-1.4-1.4-2.1c-1-1.4-2.2-2.8-3.5-4.2c-1.3-1.4-2.9-2.8-4.5-4.2
		c-1.6-1.4-3.4-2.8-5.1-4.2l-2.9-2.3c-1.1-0.8-2.1-1.7-3.1-2.7c-2-1.8-4-3.9-5.8-6.1c-3.6-4.4-6.5-9.6-8-15.2
		c-1.6-5.6-1.6-11.3-0.7-16.2c0.9-4.9,2.6-9.1,4.5-12.6c1.9-3.5,3.9-6.4,5.9-8.9c1.9-2.4,3.8-4.4,5.3-6c0.8-0.8,1.5-1.5,2.1-2
		c0.6-0.6,1.2-1.1,1.6-1.4C1150.2,592.5,1150.7,592.1,1150.7,592.1z"/>
	<path class="st37" d="M1206.4,603.8c0,0-0.1,0.5-0.2,1.3c-0.1,0.9-0.4,2.1-0.7,3.7c-0.1,0.8-0.3,1.6-0.5,2.5
		c-0.2,0.9-0.4,1.9-0.5,2.9c-0.4,2.1-0.7,4.3-1,6.7c-0.1,1.2-0.2,2.4-0.2,3.5c0.1,1.2,0,2.3,0.3,3.4c0.3,2.2,0.9,4.2,1.9,6
		c1,1.8,2.3,3.6,4.1,5.3c0.4,0.5,1,0.9,1.4,1.3c0.5,0.4,0.9,0.9,1.5,1.3c0.6,0.4,1.1,0.9,1.6,1.3l0.4,0.3l0.6,0.4l1,0.8
		c1.5,1.2,3,2.4,4.4,3.8c1.5,1.4,2.9,2.9,4.3,4.6c2.7,3.3,5.1,7.4,6.2,12c0.6,2.3,0.8,4.6,0.7,6.8c0,0.5-0.1,1.1-0.1,1.6l-0.1,1.1
		l-0.1,0.6c-0.1,0.4-0.2,0.8-0.2,1.1c-0.1,0.5-0.2,1.1-0.4,1.6l-0.2,0.8l-0.2,0.7c-0.2,0.4-0.3,0.9-0.5,1.3
		c-0.3,0.8-0.7,1.7-1.1,2.4c-0.8,1.5-1.6,3-2.5,4.3c-1.8,2.6-3.9,4.6-5.9,6.1c-2,1.5-4,2.4-5.6,3c-0.4,0.1-0.8,0.3-1.2,0.4
		c-0.4,0.1-0.7,0.2-1.1,0.2c-0.7,0.1-1.2,0.2-1.7,0.2c-0.9,0.1-1.4,0.1-1.4,0.1s0.3-0.4,0.9-1c0.3-0.3,0.6-0.7,1-1.2
		c0.4-0.5,0.7-1,1.1-1.7c0.8-1.3,1.6-2.8,2.3-4.6c0.7-1.8,1.3-3.8,1.6-6c0.2-1.1,0.3-2.2,0.4-3.4c0-0.6,0-1.1,0-1.7
		c0-0.3,0-0.6,0-0.9l0-0.4l-0.1-0.3c0-0.2-0.1-0.5-0.1-0.7c0-0.4-0.1-0.8-0.1-1.1l-0.1-0.6l0,0c0,0.5,0,0.1,0,0.2l0,0l0-0.1l0-0.2
		l-0.2-0.7c-0.3-0.9-0.6-1.8-1.1-2.6c-0.2-0.4-0.5-0.8-0.7-1.2c-0.3-0.4-0.6-0.8-0.9-1.3c-0.6-0.9-1.5-1.7-2.4-2.6
		c-0.9-0.9-2-1.8-3-2.8c-1.1-0.9-2.3-1.9-3.5-2.9l-1-0.8l-0.5-0.4l-0.6-0.5c-0.8-0.7-1.6-1.4-2.3-2c-0.8-0.6-1.5-1.5-2.2-2.3
		c-0.7-0.8-1.5-1.5-2.1-2.4c-2.7-3.4-4.9-7.6-6-11.9c-0.2-1.1-0.5-2.2-0.7-3.3c-0.1-1.1-0.2-2.2-0.2-3.2c0-1.1,0.1-2.1,0.2-3.1
		c0.1-1,0.3-2,0.5-2.9c0.3-1.9,1-3.6,1.6-5.2c0.3-0.8,0.7-1.5,1.1-2.2c0.4-0.7,0.7-1.4,1.1-2c1.6-2.6,3.2-4.7,4.8-6.4
		c1.6-1.7,3-3.1,4.3-4.1c0.6-0.5,1.2-1,1.7-1.4c0.5-0.4,1-0.7,1.3-0.9C1206,604.1,1206.4,603.8,1206.4,603.8z"/>
</g>
</svg>
